<svg xmlns="http://www.w3.org/2000/svg" viewBox="0 0 24 24" fill="none">
  <path fill="#e2e8f0" d="M12 2a10 10 0 0 0-3.16 19.48c.5.1.68-.22.68-.48v-1.7c-2.78.6-3.37-1.2-3.37-1.2-.45-1.16-1.1-1.47-1.1-1.47-.9-.62.07-.6.07-.6 1 .07 1.53 1.03 1.53 1.03.9 1.55 2.36 1.1 2.94.85.1-.66.35-1.1.64-1.35-2.22-.25-4.56-1.1-4.56-4.9 0-1.08.39-1.97 1.03-2.66-.1-.25-.45-1.27.1-2.64 0 0 .84-.27 2.75 1.02a9.6 9.6 0 0 1 5 0c1.9-1.3 2.74-1.02 2.74-1.02.55 1.37.2 2.39.1 2.64.64.69 1.02 1.58 1.02 2.66 0 3.82-2.35 4.64-4.58 4.88.36.31.68.92.68 1.86v2.75c0 .26.18.58.69.48A10 10 0 0 0 12 2Z"/>
</svg>