<svg xmlns="http://www.w3.org/2000/svg" viewBox="0 0 24 24" fill="none">
  <path fill="#38bdf8" d="M20.85 7.1c.01.14.01.27.01.4 0 4.07-3.1 8.76-8.76 8.76-1.74 0-3.36-.5-4.73-1.37.24.03.48.04.73.04 1.44 0 2.77-.49 3.83-1.32-1.35-.03-2.49-.91-2.88-2.13.19.03.37.05.57.05.27 0 .54-.04.79-.1-1.4-.28-2.46-1.51-2.46-3v-.04c.4.22.86.36 1.35.37-.82-.55-1.36-1.49-1.36-2.55 0-.56.15-1.08.41-1.53 1.48 1.82 3.7 3.02 6.2 3.14-.05-.22-.08-.44-.08-.67 0-1.6 1.3-2.9 2.9-2.9.83 0 1.58.35 2.1.9.65-.12 1.27-.37 1.83-.7-.21.67-.67 1.23-1.26 1.59.58-.06 1.12-.22 1.63-.44-.38.57-.86 1.07-1.41 1.47Z"/>
</svg>